<svg width="48" height="35" viewBox="0 0 48 35" fill="none" xmlns="http://www.w3.org/2000/svg">
<path d="M22.9594 16.6227C23.6085 16.3346 23.6679 15.4365 23.0625 15.0654L11.4502 7.94668C11.3116 7.86168 11.1521 7.8167 10.9895 7.8167L10.423 7.8167C9.5999 7.8167 9.22586 8.84473 9.85653 9.37367L19.6215 17.5637C19.8794 17.78 20.238 17.8305 20.5456 17.694L22.9594 16.6227Z" fill="black" stroke="black" stroke-width="0.97949"/>
<path d="M12.0592 24.7907C12.6446 24.4352 12.6189 23.5772 12.0132 23.2575L6.91565 20.5672C6.71353 20.4605 6.47788 20.4365 6.2584 20.5002L2.90467 21.4739C2.19166 21.6809 2.03824 22.6226 2.64867 23.0452L7.91846 26.6935C8.20453 26.8916 8.58033 26.9029 8.87774 26.7223L12.0592 24.7907Z" fill="black" stroke="black" stroke-width="0.97949"/>
<path d="M41.1815 3.00191C42.3909 2.1188 44.0844 2.3649 44.9924 3.55571C45.9281 4.78275 45.672 6.53917 44.425 7.44801L17.3187 27.2031L10.6277 28.6042L8.34917 26.9767L41.1815 3.00191Z" fill="black" stroke="black" stroke-width="0.97949"/>
<path d="M1.2879 33.1836H27.0458" stroke="black" stroke-width="2" stroke-linecap="round"/>
<path fill-rule="evenodd" clip-rule="evenodd" d="M30.2481 2.56588L31.7325 3.41411L30 4.4041L28.2675 3.41411L29.7519 2.56588C29.9056 2.47804 30.0944 2.47804 30.2481 2.56588ZM27.5 6.393V4.70316L29.25 5.70316L29.25 7.68316L27.7519 6.82712C27.5961 6.7381 27.5 6.57242 27.5 6.393ZM30.3437 9.50612C30.5685 9.46693 30.7881 9.389 30.9923 9.27234L32.9923 8.12948C33.6154 7.7734 34 7.11071 34 6.393V4.14286C34 3.42514 33.6154 2.76246 32.9923 2.40637L30.9923 1.26351C30.3774 0.912162 29.6226 0.912162 29.0077 1.26351L27.0077 2.40637C26.3846 2.76246 26 3.42514 26 4.14286V6.393C26 7.11071 26.3846 7.7734 27.0077 8.12948L29.0077 9.27234C29.2119 9.389 29.4315 9.46693 29.6563 9.50612C29.7592 9.55931 29.8761 9.58936 30 9.58936C30.1239 9.58936 30.2408 9.55931 30.3437 9.50612ZM30.75 7.68316L30.75 5.70316L32.5 4.70316V6.393C32.5 6.57242 32.4039 6.7381 32.2481 6.82712L30.75 7.68316Z" fill="black"/>
<path fill-rule="evenodd" clip-rule="evenodd" d="M24.2481 6.56588L25.7325 7.41411L24 8.40409L22.2675 7.41411L23.7519 6.56588C23.9056 6.47804 24.0944 6.47804 24.2481 6.56588ZM21.5 10.393V8.70315L23.25 9.70315L23.25 11.6832L21.7519 10.8271C21.5961 10.7381 21.5 10.5724 21.5 10.393ZM24.3437 13.5061C24.5685 13.4669 24.7881 13.389 24.9923 13.2723L26.9923 12.1295C27.6154 11.7734 28 11.1107 28 10.393V8.14286C28 7.42514 27.6154 6.76246 26.9923 6.40637L24.9923 5.26351C24.3774 4.91216 23.6226 4.91216 23.0077 5.26351L21.0077 6.40637C20.3846 6.76246 20 7.42514 20 8.14286V10.393C20 11.1107 20.3846 11.7734 21.0077 12.1295L23.0077 13.2723C23.2119 13.389 23.4315 13.4669 23.6563 13.5061C23.7593 13.5593 23.8761 13.5893 24 13.5893C24.1239 13.5893 24.2407 13.5593 24.3437 13.5061ZM24.75 11.6832L24.75 9.70315L26.5 8.70315V10.393C26.5 10.5724 26.4039 10.7381 26.2481 10.8271L24.75 11.6832Z" fill="black"/>
</svg>
